REM DIRINDEX 1\3,1\4,1\5,1\6,1\2\7,1\2\8,1\2\9,1\10
REM DIRNAME cjc056,folder01,folder02,folder03,folder04,folder05,folder06,folder07,folder08,folder09
TITLE ""
FILE "1-16 Level 1-141-150.mp3" MP3
  TRACK 01 AUDIO
    TITLE "0:"
    INDEX 01 00:00:00
  TRACK 02 AUDIO
    TITLE "7:cjc056_0459"
    INDEX 01 00:00:07
  TRACK 03 AUDIO
    TITLE "0:"
    INDEX 01 00:01:13
  TRACK 04 AUDIO
    TITLE "8:cjc056_0460"
    INDEX 01 00:01:22
  TRACK 05 AUDIO
    TITLE "0:"
    INDEX 01 00:02:28
  TRACK 06 AUDIO
    TITLE "9:cjc056_0461"
    INDEX 01 00:02:42
  TRACK 07 AUDIO
    TITLE "0:"
    INDEX 01 00:05:26
  TRACK 08 AUDIO
    TITLE "7:cjc056_0462"
    INDEX 01 00:06:04
  TRACK 09 AUDIO
    TITLE "0:"
    INDEX 01 00:07:11
  TRACK 10 AUDIO
    TITLE "8:cjc056_0463"
    INDEX 01 00:07:27
  TRACK 11 AUDIO
    TITLE "0:"
    INDEX 01 00:08:40
  TRACK 12 AUDIO
    TITLE "9:cjc056_0464"
    INDEX 01 00:08:54
  TRACK 13 AUDIO
    TITLE "0:"
    INDEX 01 00:10:18
  TRACK 14 AUDIO
    TITLE "7:cjc056_0465"
    INDEX 01 00:10:68
  TRACK 15 AUDIO
    TITLE "0:"
    INDEX 01 00:12:44
  TRACK 16 AUDIO
    TITLE "8:cjc056_0466"
    INDEX 01 00:12:60
  TRACK 17 AUDIO
    TITLE "0:"
    INDEX 01 00:14:13
  TRACK 18 AUDIO
    TITLE "9:cjc056_0467"
    INDEX 01 00:14:27
  TRACK 19 AUDIO
    TITLE "0:"
    INDEX 01 00:16:67
  TRACK 20 AUDIO
    TITLE "7:cjc056_0468"
    INDEX 01 00:17:47
  TRACK 21 AUDIO
    TITLE "0:"
    INDEX 01 00:18:56
  TRACK 22 AUDIO
    TITLE "8:cjc056_0469"
    INDEX 01 00:18:72
  TRACK 23 AUDIO
    TITLE "0:"
    INDEX 01 00:20:24
  TRACK 24 AUDIO
    TITLE "9:cjc056_0470"
    INDEX 01 00:20:37
  TRACK 25 AUDIO
    TITLE "0:"
    INDEX 01 00:22:38
  TRACK 26 AUDIO
    TITLE "7:cjc056_0471"
    INDEX 01 00:23:14
  TRACK 27 AUDIO
    TITLE "0:"
    INDEX 01 00:24:18
  TRACK 28 AUDIO
    TITLE "8:cjc056_0472"
    INDEX 01 00:24:27
  TRACK 29 AUDIO
    TITLE "0:"
    INDEX 01 00:25:31
  TRACK 30 AUDIO
    TITLE "9:cjc056_0473"
    INDEX 01 00:25:45
  TRACK 31 AUDIO
    TITLE "0:"
    INDEX 01 00:26:67
  TRACK 32 AUDIO
    TITLE "7:cjc056_0474"
    INDEX 01 00:27:47
  TRACK 33 AUDIO
    TITLE "0:"
    INDEX 01 00:28:49
  TRACK 34 AUDIO
    TITLE "8:cjc056_0475"
    INDEX 01 00:28:64
  TRACK 35 AUDIO
    TITLE "0:"
    INDEX 01 00:30:10
  TRACK 36 AUDIO
    TITLE "9:cjc056_0476"
    INDEX 01 00:30:24
  TRACK 37 AUDIO
    TITLE "0:"
    INDEX 01 00:32:00
  TRACK 38 AUDIO
    TITLE "7:cjc056_0477"
    INDEX 01 00:32:52
  TRACK 39 AUDIO
    TITLE "0:"
    INDEX 01 00:33:56
  TRACK 40 AUDIO
    TITLE "8:cjc056_0478"
    INDEX 01 00:33:69
  TRACK 41 AUDIO
    TITLE "0:"
    INDEX 01 00:35:17
  TRACK 42 AUDIO
    TITLE "9:cjc056_0479"
    INDEX 01 00:35:31
  TRACK 43 AUDIO
    TITLE "0:"
    INDEX 01 00:37:34
  TRACK 44 AUDIO
    TITLE "7:cjc056_0480"
    INDEX 01 00:38:12
  TRACK 45 AUDIO
    TITLE "0:"
    INDEX 01 00:39:17
  TRACK 46 AUDIO
    TITLE "8:cjc056_0481"
    INDEX 01 00:39:33
  TRACK 47 AUDIO
    TITLE "0:"
    INDEX 01 00:40:46
  TRACK 48 AUDIO
    TITLE "9:cjc056_0482"
    INDEX 01 00:40:60
  TRACK 49 AUDIO
    TITLE "0:"
    INDEX 01 00:43:11
  TRACK 50 AUDIO
    TITLE "7:cjc056_0483"
    INDEX 01 00:43:64
  TRACK 51 AUDIO
    TITLE "0:"
    INDEX 01 00:44:71
  TRACK 52 AUDIO
    TITLE "8:cjc056_0484"
    INDEX 01 00:45:08
  TRACK 53 AUDIO
    TITLE "0:"
    INDEX 01 00:46:43
  TRACK 54 AUDIO
    TITLE "9:cjc056_0485"
    INDEX 01 00:46:56
  TRACK 55 AUDIO
    TITLE "0:"
    INDEX 01 00:49:00
  TRACK 56 AUDIO
    TITLE "7:cjc056_0486"
    INDEX 01 00:49:53
  TRACK 57 AUDIO
    TITLE "0:"
    INDEX 01 00:50:54
  TRACK 58 AUDIO
    TITLE "8:cjc056_0487"
    INDEX 01 00:50:70
  TRACK 59 AUDIO
    TITLE "0:"
    INDEX 01 00:52:20
  TRACK 60 AUDIO
    TITLE "9:cjc056_0488"
    INDEX 01 00:52:34
  TRACK 61 AUDIO
    TITLE "0:"
    INDEX 01 00:54:40
  TRACK 62 AUDIO
    TITLE "7:cjc056_0489"
    INDEX 01 00:55:18
  TRACK 63 AUDIO
    TITLE "0:"
    INDEX 01 00:56:14
  TRACK 64 AUDIO
    TITLE "8:cjc056_0490"
    INDEX 01 00:56:29
  TRACK 65 AUDIO
    TITLE "0:"
    INDEX 01 00:57:56
  TRACK 66 AUDIO
    TITLE "9:cjc056_0491"
    INDEX 01 00:57:70
  TRACK 67 AUDIO
    TITLE "0:"
    INDEX 01 01:00:57
